<svg version="1.1" id="Layer_1" xmlns="http://www.w3.org/2000/svg" xmlns:xlink="http://www.w3.org/1999/xlink" x="0px" y="0px"
	 width="100%" viewBox="0 0 71 71" enable-background="new 0 0 71 71" xml:space="preserve">
<path fill="#B01F27" opacity="1.000000" stroke="none" 
	d="
M22.000000,1.000000 
	C31.354229,1.000000 40.708458,1.000000 50.599907,1.196094 
	C51.137127,1.392188 51.186859,1.804670 50.899651,1.886319 
	C50.098591,2.258204 49.584736,2.548442 48.748131,2.913651 
	C45.984268,3.784725 43.543159,4.580826 40.418747,5.599767 
	C39.538177,9.139924 38.432793,13.583901 37.025459,17.900120 
	C36.514072,17.713482 36.304630,17.654602 36.327267,17.341370 
	C35.898121,15.023209 35.163990,12.979357 34.592381,10.891020 
	C33.686558,7.581676 32.418598,4.881480 28.270554,4.774235 
	C27.158648,4.745486 26.078199,3.499858 24.753275,2.625611 
	C23.682159,1.958906 22.841080,1.479453 22.000000,1.000000 
z"/>
<path fill="#AF202A" opacity="1.000000" stroke="none" 
	d="
M1.000000,50.000000 
	C1.000000,41.312435 1.000000,32.624874 1.000500,23.170916 
	C1.360337,21.983015 1.719674,21.561508 2.255207,21.165436 
	C2.431402,21.190868 2.777201,21.106077 2.859035,21.485874 
	C3.455367,24.555138 3.437647,27.517935 4.637969,29.855192 
	C5.778607,32.076233 6.871515,35.621178 10.976686,34.443581 
	C11.277334,34.917549 11.557893,35.040939 12.013309,35.301544 
	C12.417262,36.041470 12.702434,36.516689 12.657165,37.120213 
	C7.240636,39.525856 3.720045,42.958179 3.471604,48.939278 
	C3.451576,49.421444 2.585016,49.868450 1.781088,50.425735 
	C1.300229,50.346451 1.150114,50.173225 1.000000,50.000000 
z"/>
<path fill="#AE222C" opacity="1.000000" stroke="none" 
	d="
M50.000000,72.000000 
	C41.645767,72.000000 33.291538,72.000000 24.465168,71.718857 
	C23.982473,71.250557 23.971916,71.063408 24.158051,70.548309 
	C30.102848,69.735023 34.589085,67.856506 35.120178,61.095898 
	C35.206917,59.991711 36.312454,58.967556 37.182617,57.929253 
	C37.418125,57.952095 37.891441,57.920689 38.036015,58.246964 
	C38.576763,59.688881 38.972939,60.804523 39.448586,62.365395 
	C39.671871,63.075626 39.815685,63.340630 39.867290,63.605827 
	C39.775082,63.606014 39.818008,63.785366 39.544209,64.075592 
	C40.166019,68.732018 43.389061,69.188797 47.334396,69.233047 
	C48.985081,69.886841 50.313004,70.282051 51.499405,71.338135 
	C50.905258,71.999336 50.452629,71.999672 50.000000,72.000000 
z"/>
<path fill="#AE242D" opacity="1.000000" stroke="none" 
	d="
M72.000000,24.000000 
	C72.000000,28.356899 72.000000,32.713799 71.711800,37.582626 
	C70.947632,40.062798 70.471672,42.031036 69.741638,43.995712 
	C69.318130,43.992371 69.148697,43.992588 68.694206,43.766705 
	C67.323166,42.356098 66.435669,40.823547 65.106461,40.065540 
	C62.902676,38.808788 60.414722,38.050339 58.038666,36.852257 
	C58.030853,36.622540 58.012608,36.163212 58.374184,36.021111 
	C65.730888,35.003548 69.852798,31.276142 70.481110,24.065334 
	C70.492569,23.933874 70.687752,23.818422 71.169418,23.489155 
	C71.694420,23.521872 71.847206,23.760935 72.000000,24.000000 
z"/>
<path fill="#AF202A" opacity="1.000000" stroke="none" 
	d="
M1.000000,17.000000 
	C1.000000,11.741570 1.000000,6.483139 1.000000,1.000000 
	C6.017719,1.000000 11.037662,1.000000 16.584621,1.216398 
	C17.298538,1.674398 17.532440,1.855192 17.810045,2.223200 
	C17.806742,2.471223 17.664648,2.945032 17.375729,3.001352 
	C15.709029,3.330055 14.331248,3.602437 12.565381,3.931328 
	C8.808585,5.328010 3.744890,4.897724 4.586811,11.117066 
	C3.802203,12.539549 3.326663,13.803813 2.663505,15.245481 
	C2.275771,15.892354 2.075655,16.361824 1.655736,16.868706 
	C1.435934,16.906118 1.000000,17.000000 1.000000,17.000000 
z"/>
<path fill="#AF222E" opacity="1.000000" stroke="none" 
	d="
M57.000000,1.000000 
	C61.917576,1.000000 66.835152,1.000000 72.000000,1.000000 
	C72.000000,5.012245 72.000000,9.029461 71.739105,13.736217 
	C71.192123,14.771704 70.906052,15.117650 70.371742,15.160109 
	C70.417755,7.118997 64.925842,4.891875 58.759285,2.884731 
	C58.035683,2.354073 57.503517,2.063629 56.962173,1.579283 
	C56.952995,1.385381 57.000000,1.000000 57.000000,1.000000 
z"/>
<path fill="#B1202C" opacity="1.000000" stroke="none" 
	d="
M14.000000,72.000000 
	C9.736839,72.000000 5.473679,72.000000 1.000000,72.000000 
	C1.000000,67.316460 1.000000,62.630894 1.148391,57.304855 
	C1.601600,56.570057 1.817730,56.376678 2.213481,56.087242 
	C2.650614,56.148018 2.819437,56.205795 3.018190,56.613152 
	C3.394251,59.258247 3.740380,61.553764 4.049776,64.214172 
	C4.360884,65.675842 4.708724,66.772629 5.440868,67.921021 
	C8.563111,68.957329 11.301051,69.942039 14.033488,71.195213 
	C14.018657,71.642456 14.009328,71.821228 14.000000,72.000000 
z"/>
<path fill="#B1222D" opacity="1.000000" stroke="none" 
	d="
M72.000000,59.000000 
	C72.000000,63.256298 72.000000,67.512596 72.000000,72.000000 
	C67.986252,72.000000 63.969788,72.000000 59.339012,71.784126 
	C58.470215,71.341995 58.215721,71.115730 58.169228,70.563889 
	C67.239029,69.477722 69.025764,67.779160 70.799210,58.854519 
	C71.466652,58.932510 71.733330,58.966255 72.000000,59.000000 
z"/>
<path fill="#B2252E" opacity="1.000000" stroke="none" 
	d="
M69.995712,43.999271 
	C70.471672,42.031036 70.947632,40.062798 71.711800,38.047279 
	C72.000000,41.692909 72.000000,45.385818 71.783310,49.902802 
	C71.316460,50.596508 71.066299,50.466145 70.806290,50.256039 
	C70.796440,50.176300 70.941345,50.106850 70.948402,49.763702 
	C70.613098,48.613640 70.270737,47.806721 69.723930,46.904400 
	C69.220337,46.611179 69.136154,46.345299 69.425789,45.789398 
	C69.721657,45.044712 69.858681,44.521992 69.995712,43.999271 
z"/>
<path fill="#801517" opacity="1.000000" stroke="none" 
	d="
M14.454110,72.000000 
	C14.009328,71.821228 14.018657,71.642456 14.435255,71.163071 
	C15.885667,70.887123 16.928806,70.911789 18.349709,71.119583 
	C18.996880,71.227509 19.266293,71.152298 19.574823,71.114822 
	C19.613943,71.152557 19.631462,71.160469 20.177658,71.187607 
	C21.803022,71.101921 22.882191,70.989098 23.961361,70.876266 
	C23.971916,71.063408 23.982473,71.250557 23.996517,71.718857 
	C20.969406,72.000000 17.938814,72.000000 14.454110,72.000000 
z"/>
<path fill="#C7A392" opacity="1.000000" stroke="none" 
	d="
M72.000000,23.571537 
	C71.847206,23.760935 71.694420,23.521872 71.052902,23.181112 
	C70.374474,22.006775 70.184761,20.934132 69.930893,19.705090 
	C69.866745,19.548693 69.901077,19.212225 70.088509,19.028034 
	C70.383171,18.524372 70.490402,18.204901 70.734604,17.805943 
	C70.871567,17.726454 71.074959,17.969246 71.305153,18.008980 
	C71.535347,18.048712 72.000000,18.000000 72.000000,18.000000 
	C72.000000,19.714357 72.000000,21.428717 72.000000,23.571537 
z"/>
<path fill="#CBA495" opacity="1.000000" stroke="none" 
	d="
M1.000000,17.375000 
	C1.000000,17.000000 1.435934,16.906118 1.740628,17.118557 
	C2.320349,17.521036 2.595377,17.711073 3.020943,18.130882 
	C3.436783,18.610893 3.702084,18.861128 3.965274,19.346073 
	C3.963163,19.580780 3.961186,20.050213 3.781468,20.245275 
	C3.326900,20.662252 3.052051,20.884165 2.777201,21.106077 
	C2.777201,21.106077 2.431402,21.190868 2.110567,20.944054 
	C1.526488,20.464827 1.263244,20.232414 1.000000,20.000000 
	C1.000000,19.250000 1.000000,18.500000 1.000000,17.375000 
z"/>
<path fill="#E4B4AF" opacity="1.000000" stroke="none" 
	d="
M56.571278,1.000000 
	C57.000000,1.000000 56.952995,1.385381 56.718552,1.615582 
	C56.484108,1.845781 56.025318,2.013885 55.662849,2.058320 
	C54.366318,2.420875 53.432247,2.738995 52.367687,3.087673 
	C52.237194,3.118231 52.016315,2.966374 52.072342,2.684789 
	C51.814529,2.203692 51.500694,2.004181 51.186859,1.804670 
	C51.186859,1.804670 51.137127,1.392188 51.068565,1.196094 
	C52.714184,1.000000 54.428371,1.000000 56.571278,1.000000 
z"/>
<path fill="#C0AC9C" opacity="1.000000" stroke="none" 
	d="
M70.816132,50.335777 
	C71.066299,50.466145 71.316460,50.596508 71.783310,50.363438 
	C72.000000,51.388889 72.000000,52.777779 71.879173,54.608265 
	C71.758347,55.049862 71.514061,55.015091 71.070694,55.008728 
	C70.340851,54.929749 70.054367,54.857124 69.679459,54.573380 
	C69.418510,54.063324 69.430504,53.771969 69.868576,53.235268 
	C70.345482,52.100155 70.580803,51.217968 70.816132,50.335777 
z"/>
<path fill="#E3BEAA" opacity="1.000000" stroke="none" 
	d="
M1.945171,56.084248 
	C1.817730,56.376678 1.601600,56.570057 1.148391,56.832191 
	C1.000000,54.958332 1.000000,52.916668 1.000000,50.437500 
	C1.150114,50.173225 1.300229,50.346451 1.822312,50.630463 
	C2.207003,51.023628 2.164722,51.297512 2.002521,52.011139 
	C1.940126,53.667664 1.942648,54.875957 1.945171,56.084248 
z"/>
<path fill="#D6BAAE" opacity="1.000000" stroke="none" 
	d="
M50.416664,72.000000 
	C50.452629,71.999672 50.905258,71.999336 51.703003,71.280144 
	C52.484077,70.250679 52.920040,69.940086 53.608688,69.633331 
	C54.191460,69.699242 54.521553,69.761314 54.919029,70.199203 
	C55.009212,70.828529 55.032001,71.082047 55.145035,71.510254 
	C55.235275,71.684929 55.000000,72.000000 55.000000,72.000000 
	C53.611111,72.000000 52.222221,72.000000 50.416664,72.000000 
z"/>
<path fill="#7A252D" opacity="1.000000" stroke="none" 
	d="
M21.750000,1.000000 
	C22.841080,1.479453 23.682159,1.958906 24.374851,2.698747 
	C23.199787,2.926170 22.173113,2.893207 21.199818,2.535506 
	C21.168797,1.807179 21.084398,1.403590 21.000000,1.000000 
	C21.000000,1.000000 21.500000,1.000000 21.750000,1.000000 
z"/>
<path fill="#E6B1AF" opacity="1.000000" stroke="none" 
	d="
M20.599974,1.000000 
	C21.084398,1.403590 21.168797,1.807179 20.969509,2.634677 
	C20.520407,3.083379 20.354992,3.108172 19.950962,2.892239 
	C19.079346,2.426067 18.446348,2.200622 17.813349,1.975177 
	C17.532440,1.855192 17.298538,1.674398 17.055820,1.216398 
	C18.066648,1.000000 19.133299,1.000000 20.599974,1.000000 
z"/>
<path fill="#80191B" opacity="1.000000" stroke="none" 
	d="
M55.399994,72.000000 
	C55.000000,72.000000 55.235275,71.684929 55.505295,71.440277 
	C56.503952,71.093575 57.232594,70.991524 57.961231,70.889473 
	C58.215721,71.115730 58.470215,71.341995 58.862350,71.784126 
	C57.933331,72.000000 56.866661,72.000000 55.399994,72.000000 
z"/>
<path fill="#7F1720" opacity="1.000000" stroke="none" 
	d="
M71.514061,55.015091 
	C71.514061,55.015091 71.758347,55.049862 71.879173,55.024933 
	C72.000000,56.066788 72.000000,57.133575 72.000000,58.600182 
	C71.733330,58.966255 71.466652,58.932510 70.846230,58.461121 
	C70.833008,57.020683 71.173538,56.017887 71.514061,55.015091 
z"/>
<path fill="#7E1515" opacity="1.000000" stroke="none" 
	d="
M72.000000,17.600004 
	C72.000000,18.000000 71.535347,18.048712 71.241867,17.695709 
	C70.838913,16.716335 70.729439,16.089966 70.619980,15.463594 
	C70.906052,15.117650 71.192123,14.771704 71.739105,14.212879 
	C72.000000,15.066669 72.000000,16.133339 72.000000,17.600004 
z"/>
<path fill="#DEC3B3" opacity="1.000000" stroke="none" 
	d="
M1.000000,20.375000 
	C1.263244,20.232414 1.526488,20.464827 1.934372,20.918621 
	C1.719674,21.561508 1.360337,21.983015 1.000500,22.702259 
	C1.000000,22.250000 1.000000,21.500000 1.000000,20.375000 
z"/>
<path fill="#F8F6E9" opacity="1.000000" stroke="none" 
	d="
M52.016315,2.966374 
	C52.016315,2.966374 52.237194,3.118231 52.645473,3.352567 
	C53.168518,3.813999 53.283279,4.041095 53.309116,4.668765 
	C53.130703,5.884117 53.041214,6.698895 52.959000,7.677811 
	C52.975643,8.060815 52.985844,8.279642 52.769310,8.800631 
	C52.406330,10.071576 52.270897,11.040321 51.958057,12.345584 
	C50.807388,15.065304 49.768253,17.144075 46.519123,17.067015 
	C45.383751,17.040087 44.216148,18.372429 43.063267,19.084034 
	C43.721874,20.022284 44.380482,20.960531 45.034519,22.294399 
	C45.111591,23.508177 45.214790,24.324867 45.270584,25.144781 
	C45.405693,27.130243 45.518715,29.117212 45.640633,31.103573 
	C43.706921,30.733910 41.773212,30.364248 39.549980,29.852898 
	C39.257191,29.089876 39.253925,28.468542 39.423378,27.452042 
	C39.108582,25.703531 38.621059,24.350187 38.018471,22.730103 
	C37.784122,22.094847 37.664833,21.726334 37.753780,21.033955 
	C37.750477,19.816019 37.538940,18.921947 37.327404,18.027878 
	C38.432793,13.583901 39.538177,9.139924 40.418747,5.599767 
	C43.543159,4.580826 45.984268,3.784725 49.109756,2.984485 
	C50.534859,2.975689 51.275589,2.971032 52.016315,2.966374 
z"/>
<path fill="#FAF7EA" opacity="1.000000" stroke="none" 
	d="
M20.189579,3.132965 
	C20.354992,3.108172 20.520407,3.083379 20.916130,2.959414 
	C22.173113,2.893207 23.199787,2.926170 24.604885,2.885998 
	C26.078199,3.499858 27.158648,4.745486 28.270554,4.774235 
	C32.418598,4.881480 33.686558,7.581676 34.592381,10.891020 
	C35.163990,12.979357 35.898121,15.023209 36.252441,17.693157 
	C35.901661,18.533054 35.857784,18.766808 35.589676,19.009239 
	C35.365444,19.017916 34.916862,19.038815 34.527771,19.007603 
	C24.975952,18.240755 20.650280,12.864641 19.954288,3.857972 
	C20.094263,3.458343 20.141922,3.295654 20.189579,3.132965 
z"/>
<path fill="#BBA594" opacity="1.000000" stroke="none" 
	d="
M35.813911,19.000563 
	C35.857784,18.766808 35.901661,18.533054 36.020359,17.947512 
	C36.304630,17.654602 36.514072,17.713482 37.025459,17.900120 
	C37.538940,18.921947 37.750477,19.816019 37.548466,21.152805 
	C36.790848,21.607880 36.513504,21.477919 36.179832,20.848604 
	C35.975819,19.994568 35.894863,19.497564 35.813911,19.000563 
z"/>
<path fill="#782025" opacity="1.000000" stroke="none" 
	d="
M52.072342,2.684789 
	C51.275589,2.971032 50.534859,2.975689 49.432510,2.909513 
	C49.584736,2.548442 50.098591,2.258204 50.899651,1.886319 
	C51.500694,2.004181 51.814529,2.203692 52.072342,2.684789 
z"/>
<path fill="#FBF5EA" opacity="1.000000" stroke="none" 
	d="
M12.987605,36.991905 
	C12.702434,36.516689 12.417262,36.041470 12.319464,35.219337 
	C13.004909,34.249096 13.502980,33.625767 14.219196,32.736935 
	C14.974841,30.940792 15.512340,29.410158 16.346554,28.036449 
	C17.074986,29.137266 17.506704,30.081156 17.968258,31.382343 
	C17.690470,32.107651 17.382849,32.475662 17.075226,32.843674 
	C16.939400,32.507336 16.803576,32.170998 16.657932,32.252728 
	C17.046227,33.030334 17.444344,33.389877 17.930878,34.030453 
	C18.738947,34.207130 19.458597,34.102772 20.571449,33.996914 
	C23.067217,32.339626 25.169781,30.683840 27.632328,28.744562 
	C28.070883,30.419689 28.547836,32.241486 28.852501,34.399120 
	C27.068525,35.298542 25.456837,35.862129 23.845148,36.425716 
	C28.758495,39.049755 34.106705,39.803558 35.063805,46.281509 
	C35.623764,48.111809 36.311726,49.644211 36.999847,51.324986 
	C37.000008,51.473358 37.001526,51.770103 36.730774,51.898014 
	C35.989410,52.356277 35.518795,52.686630 34.684174,53.022491 
	C33.167686,53.367950 32.015205,53.707905 30.543552,53.905327 
	C29.175957,53.031593 28.214329,51.882961 27.063622,51.643707 
	C22.794317,50.756039 21.926600,47.717960 22.062496,43.917145 
	C23.014708,42.898705 23.682953,42.038048 24.336924,41.195778 
	C23.043011,40.030136 22.010866,39.100315 21.347300,38.003853 
	C20.454691,37.274609 19.193506,36.712006 17.650492,36.157181 
	C16.927561,36.746609 16.486460,37.328266 15.964783,38.193359 
	C14.918674,37.981831 13.953139,37.486870 12.987605,36.991905 
z"/>
<path fill="#FAF5E7" opacity="1.000000" stroke="none" 
	d="
M20.978724,38.170494 
	C22.010866,39.100315 23.043011,40.030136 24.336924,41.195778 
	C23.682953,42.038048 23.014708,42.898705 21.773270,43.774769 
	C16.496939,40.032085 17.486738,45.601852 16.104729,47.037483 
	C14.794862,48.398186 13.971812,50.227520 12.539484,51.904228 
	C9.378374,52.588829 6.612454,53.219963 3.668932,53.617516 
	C3.016700,52.776928 2.542070,52.169918 2.067440,51.562908 
	C2.164722,51.297512 2.207003,51.023628 2.153057,50.536522 
	C2.585016,49.868450 3.451576,49.421444 3.471604,48.939278 
	C3.720045,42.958179 7.240636,39.525856 12.657165,37.120213 
	C13.953139,37.486870 14.918674,37.981831 16.265779,38.230286 
	C17.165016,37.723412 17.682682,37.463047 18.494061,37.259163 
	C19.518091,37.600594 20.248407,37.885544 20.978724,38.170494 
z"/>
<path fill="#F9F5E8" opacity="1.000000" stroke="none" 
	d="
M16.049839,27.879522 
	C15.512340,29.410158 14.974841,30.940792 13.871407,32.755295 
	C12.503822,33.432945 11.702171,33.826725 10.900521,34.220509 
	C6.871515,35.621178 5.778607,32.076233 4.637969,29.855192 
	C3.437647,27.517935 3.455367,24.555138 2.859035,21.485874 
	C3.052051,20.884165 3.326900,20.662252 4.163598,20.277481 
	C6.962372,21.014557 9.338936,21.677164 11.393929,22.886299 
	C13.174921,23.934216 14.591373,25.601685 16.106417,27.211956 
	C16.043884,27.428595 16.049839,27.879522 16.049839,27.879522 
z"/>
<path fill="#FAF6EA" opacity="1.000000" stroke="none" 
	d="
M10.976686,34.443581 
	C11.702171,33.826725 12.503822,33.432945 13.653261,33.020802 
	C13.502980,33.625767 13.004909,34.249096 12.200684,34.954628 
	C11.557893,35.040939 11.277334,34.917549 10.976686,34.443581 
z"/>
<path fill="#F9F7E7" opacity="1.000000" stroke="none" 
	d="
M30.862726,54.047855 
	C32.015205,53.707905 33.167686,53.367950 34.604370,53.350670 
	C35.298042,54.460491 35.707504,55.247646 36.107384,56.306839 
	C36.380905,57.021393 36.664009,57.463902 36.947105,57.906414 
	C36.312454,58.967556 35.206917,59.991711 35.120178,61.095898 
	C34.589085,67.856506 30.102848,69.735023 24.158051,70.548309 
	C22.882191,70.989098 21.803022,71.101921 20.158478,70.796188 
	C19.394171,68.892357 19.195236,67.407104 19.008123,65.958130 
	C19.019943,65.994415 19.064941,66.056053 19.111546,65.714569 
	C20.379387,63.255013 21.600624,61.136944 23.037975,58.700890 
	C25.363827,56.189362 30.355724,59.054428 30.862726,54.047855 
z"/>
<path fill="#FAF7ED" opacity="1.000000" stroke="none" 
	d="
M47.011635,68.974472 
	C43.389061,69.188797 40.166019,68.732018 39.559853,64.052628 
	C39.849300,63.739441 39.959499,63.605637 39.959499,63.605637 
	C39.815685,63.340630 39.671871,63.075626 39.702694,62.174492 
	C41.289082,59.909630 42.700832,58.280899 44.471222,56.672478 
	C45.535645,56.826485 46.241428,56.960186 47.082382,57.415367 
	C48.750187,59.820732 50.282829,61.904617 51.561745,64.180992 
	C49.875893,65.907150 48.443764,67.440811 47.011635,68.974472 
z"/>
<path fill="#F5F8E2" opacity="1.000000" stroke="none" 
	d="
M44.112587,56.652172 
	C42.700832,58.280899 41.289082,59.909630 39.623222,61.729263 
	C38.972939,60.804523 38.576763,59.688881 38.080490,57.919930 
	C37.680069,56.704399 37.379742,56.142181 37.372173,55.349869 
	C37.824730,54.930267 37.984531,54.740761 38.476707,54.681419 
	C40.576916,55.425121 42.344753,56.038647 44.112587,56.652172 
z"/>
<path fill="#F8F4DF" opacity="1.000000" stroke="none" 
	d="
M47.334396,69.233047 
	C48.443764,67.440811 49.875893,65.907150 51.635612,64.550720 
	C52.427471,66.361809 52.891735,67.995651 53.356003,69.629494 
	C52.920040,69.940086 52.484077,70.250679 51.844521,70.619270 
	C50.313004,70.282051 48.985081,69.886841 47.334396,69.233047 
z"/>
<path fill="#925751" opacity="1.000000" stroke="none" 
	d="
M37.079414,55.579964 
	C37.379742,56.142181 37.680069,56.704399 37.935921,57.593651 
	C37.891441,57.920689 37.418125,57.952095 37.182617,57.929253 
	C36.664009,57.463902 36.380905,57.021393 36.243793,56.275696 
	C36.686245,55.934303 36.916122,55.803455 37.079414,55.579964 
z"/>
<path fill="#F5F8E2" opacity="1.000000" stroke="none" 
	d="
M39.867290,63.605827 
	C39.959499,63.605637 39.849300,63.739441 39.833656,63.762405 
	C39.818008,63.785366 39.775082,63.606014 39.867290,63.605827 
z"/>
<path fill="#F8F6E8" opacity="1.000000" stroke="none" 
	d="
M69.995049,19.861488 
	C70.184761,20.934132 70.374474,22.006775 70.680695,23.387459 
	C70.687752,23.818422 70.492569,23.933874 70.481110,24.065334 
	C69.852798,31.276142 65.730888,35.003548 58.011658,35.949173 
	C56.552155,36.091381 55.816753,36.163429 54.986885,35.895149 
	C54.593521,35.195492 54.294632,34.836155 53.865974,34.263626 
	C50.002449,32.482136 49.900154,29.258066 50.356308,26.081814 
	C52.013786,27.933443 53.347309,29.630333 55.505035,32.376011 
	C56.102482,25.125406 58.792686,21.251659 65.392670,20.875637 
	C67.174049,20.575569 68.584549,20.218529 69.995049,19.861488 
z"/>
<path fill="#F9F7EA" opacity="1.000000" stroke="none" 
	d="
M70.806290,50.256039 
	C70.580803,51.217968 70.345482,52.100155 69.523514,53.172062 
	C68.008095,53.262493 67.079330,53.163208 65.930496,52.906544 
	C64.770393,52.514160 63.830353,52.279160 62.503590,51.916168 
	C61.087086,51.853680 60.057304,51.919186 59.005928,51.610741 
	C57.529305,48.129520 56.074280,45.022255 54.561287,41.791191 
	C53.128559,43.140594 52.083912,44.124485 51.027451,44.743015 
	C50.346004,42.920048 49.676373,41.462448 49.307171,39.867233 
	C50.669807,39.486214 51.732018,39.242798 52.852242,39.327957 
	C53.534718,39.343613 54.159184,39.030693 54.794052,38.712639 
	C54.804455,38.707504 54.828804,38.671326 55.159279,38.414818 
	C55.724365,38.007515 55.958981,37.856728 56.473274,37.760696 
	C57.184128,37.570965 57.615307,37.326469 58.046482,37.081970 
	C60.414722,38.050339 62.902676,38.808788 65.106461,40.065540 
	C66.435669,40.823547 67.323166,42.356098 68.703232,44.109222 
	C69.087196,45.122341 69.177071,45.566853 69.266945,46.011360 
	C69.136154,46.345299 69.220337,46.611179 69.746529,47.254784 
	C70.296165,48.502663 70.618759,49.304756 70.941345,50.106850 
	C70.941345,50.106850 70.796440,50.176300 70.806290,50.256039 
z"/>
<path fill="#874548" opacity="1.000000" stroke="none" 
	d="
M58.038666,36.852257 
	C57.615307,37.326469 57.184128,37.570965 56.406731,37.532642 
	C55.734127,36.911709 55.407742,36.573589 55.081356,36.235474 
	C55.816753,36.163429 56.552155,36.091381 57.650078,36.091270 
	C58.012608,36.163212 58.030853,36.622540 58.038666,36.852257 
z"/>
<path fill="#992B31" opacity="1.000000" stroke="none" 
	d="
M69.425789,45.789398 
	C69.177071,45.566853 69.087196,45.122341 68.988297,44.335320 
	C69.148697,43.992588 69.318130,43.992371 69.741638,43.995712 
	C69.858681,44.521992 69.721657,45.044712 69.425789,45.789398 
z"/>
<path fill="#F7F7E9" opacity="1.000000" stroke="none" 
	d="
M3.967386,19.111366 
	C3.702084,18.861128 3.436783,18.610893 3.066894,17.776100 
	C2.925245,16.483721 2.888184,15.775900 2.851123,15.068078 
	C3.326663,13.803813 3.802203,12.539549 4.951766,11.103914 
	C8.416433,9.289167 11.207079,7.645791 14.260001,5.905502 
	C15.623693,5.868254 16.725107,5.927918 17.799438,6.361099 
	C16.902712,9.491360 16.033066,12.248104 14.959082,15.324729 
	C11.158956,16.800196 7.563171,17.955780 3.967386,19.111366 
z"/>
<path fill="#FCEFE2" opacity="1.000000" stroke="none" 
	d="
M13.997724,6.002414 
	C11.207079,7.645791 8.416433,9.289167 5.260834,10.945696 
	C3.744890,4.897724 8.808585,5.328010 12.622631,4.229828 
	C13.377886,4.982018 13.687805,5.492216 13.997724,6.002414 
z"/>
<path fill="#FEFAE3" opacity="1.000000" stroke="none" 
	d="
M14.260001,5.905502 
	C13.687805,5.492216 13.377886,4.982018 13.010716,4.173320 
	C14.331248,3.602437 15.709029,3.330055 17.641590,3.090593 
	C18.441523,3.374547 18.686680,3.625582 18.650295,4.028078 
	C18.188009,4.782220 18.007265,5.384901 17.826521,5.987582 
	C16.725107,5.927918 15.623693,5.868254 14.260001,5.905502 
z"/>
<path fill="#B79E92" opacity="1.000000" stroke="none" 
	d="
M18.931835,3.876616 
	C18.686680,3.625582 18.441523,3.374547 17.930508,3.034272 
	C17.664648,2.945032 17.806742,2.471223 17.810045,2.223200 
	C18.446348,2.200622 19.079346,2.426067 19.950962,2.892239 
	C20.141922,3.295654 20.094263,3.458343 19.717831,3.820263 
	C19.389061,4.019495 18.931835,3.876616 18.931835,3.876616 
z"/>
<path fill="#743029" opacity="1.000000" stroke="none" 
	d="
M2.663505,15.245481 
	C2.888184,15.775900 2.925245,16.483721 2.916356,17.546326 
	C2.595377,17.711073 2.320349,17.521036 1.960430,17.081146 
	C2.075655,16.361824 2.275771,15.892354 2.663505,15.245481 
z"/>
<path fill="#F9F6E7" opacity="1.000000" stroke="none" 
	d="
M52.996864,8.498430 
	C52.985844,8.279642 52.975643,8.060815 53.269585,8.150169 
	C54.015461,7.000833 54.458015,5.543275 55.029755,3.822805 
	C55.473759,3.335825 55.788582,3.111759 56.458038,2.937398 
	C57.525360,3.033052 58.238041,3.078999 58.950726,3.124945 
	C64.925842,4.891875 70.417755,7.118997 70.371735,15.160108 
	C70.729439,16.089966 70.838913,16.716335 71.011673,17.655975 
	C71.074959,17.969246 70.871567,17.726454 70.513062,17.863396 
	C69.771576,18.236919 69.388580,18.473501 68.655273,18.771252 
	C67.208931,18.614845 66.112907,18.397270 64.678238,18.020630 
	C61.247204,16.688623 57.494839,16.354933 56.920792,11.747459 
	C56.572483,10.579811 56.200958,9.673862 55.377705,8.283906 
	C54.282936,8.032743 53.639900,8.265587 52.996864,8.498430 
z"/>
<path fill="#74292B" opacity="1.000000" stroke="none" 
	d="
M58.759285,2.884731 
	C58.238041,3.078999 57.525360,3.033052 56.428802,2.719814 
	C56.044930,2.452523 56.025318,2.013885 56.025318,2.013885 
	C56.025318,2.013885 56.484108,1.845781 56.727730,1.809483 
	C57.503517,2.063629 58.035683,2.354073 58.759285,2.884731 
z"/>
<path fill="#FAF3E6" opacity="1.000000" stroke="none" 
	d="
M17.971947,70.936455 
	C16.928806,70.911789 15.885667,70.887123 14.440760,70.894600 
	C11.301051,69.942039 8.563111,68.957329 5.435608,67.554245 
	C4.726201,66.040344 4.406355,64.944817 4.086510,63.849281 
	C3.740380,61.553764 3.394251,59.258247 3.109881,56.314629 
	C3.475328,55.402332 3.779017,55.138145 4.471795,54.927513 
	C6.822319,55.312885 8.783752,55.644703 10.985954,56.303490 
	C13.201812,58.606930 15.176903,60.583401 17.163700,62.948868 
	C17.805252,64.243927 18.435097,65.149986 19.064941,66.056053 
	C19.064941,66.056053 19.019943,65.994415 18.631437,66.193916 
	C18.386053,67.265854 18.529173,68.138290 18.514229,69.219055 
	C18.228090,69.930405 18.100018,70.433434 17.971947,70.936455 
z"/>
<path fill="#B59F86" opacity="1.000000" stroke="none" 
	d="
M4.082705,54.873959 
	C3.779017,55.138145 3.475328,55.402332 3.079949,55.965046 
	C2.819437,56.205795 2.650614,56.148018 2.213481,56.087242 
	C1.942648,54.875957 1.940126,53.667664 2.002522,52.011139 
	C2.542070,52.169918 3.016700,52.776928 3.749286,53.868423 
	C4.032397,54.526592 4.057552,54.700275 4.082705,54.873959 
z"/>
<path fill="#851E1F" opacity="1.000000" stroke="none" 
	d="
M4.049776,64.214172 
	C4.406355,64.944817 4.726201,66.040344 5.051306,67.502647 
	C4.708724,66.772629 4.360884,65.675842 4.049776,64.214172 
z"/>
<path fill="#F9F5E8" opacity="1.000000" stroke="none" 
	d="
M62.890312,52.044159 
	C63.830353,52.279160 64.770393,52.514160 65.874428,53.280499 
	C67.281578,54.136059 68.524734,54.460281 69.767891,54.784508 
	C70.054367,54.857124 70.340851,54.929749 71.070694,55.008728 
	C71.173538,56.017887 70.833008,57.020683 70.445465,58.416878 
	C69.025764,67.779160 67.239029,69.477722 58.169228,70.563889 
	C57.232594,70.991524 56.503952,71.093575 55.415054,71.265594 
	C55.032001,71.082047 55.009212,70.828529 54.960510,69.801880 
	C56.567909,64.746544 55.338940,59.059948 61.357533,56.859180 
	C62.325871,56.505096 62.401833,53.710556 62.890312,52.044159 
z"/>
<path fill="#8F2B2F" opacity="1.000000" stroke="none" 
	d="
M70.948402,49.763702 
	C70.618759,49.304756 70.296165,48.502663 69.950974,47.350189 
	C70.270737,47.806721 70.613098,48.613640 70.948402,49.763702 
z"/>
<path fill="#4C5E32" opacity="1.000000" stroke="none" 
	d="
M18.672295,69.010727 
	C18.529173,68.138290 18.386053,67.265854 18.619617,66.157631 
	C19.195236,67.407104 19.394171,68.892357 19.612284,70.769043 
	C19.631462,71.160469 19.613943,71.152557 19.582157,70.724953 
	C19.257679,69.868477 18.964987,69.439598 18.672295,69.010727 
z"/>
<path fill="#E4E0CD" opacity="1.000000" stroke="none" 
	d="
M18.514229,69.219055 
	C18.964987,69.439598 19.257679,69.868477 19.543037,70.687225 
	C19.266293,71.152298 18.996880,71.227509 18.349707,71.119583 
	C18.100018,70.433434 18.228090,69.930405 18.514229,69.219055 
z"/>
<path fill="#3B4B27" opacity="1.000000" stroke="none" 
	d="
M65.016884,18.179695 
	C66.112907,18.397270 67.208931,18.614845 68.858093,18.934322 
	C69.574509,19.094891 69.737793,19.153557 69.901077,19.212225 
	C69.901077,19.212225 69.866745,19.548693 69.930893,19.705090 
	C68.584549,20.218529 67.174049,20.575569 65.389374,20.545776 
	C65.015762,19.499197 65.016319,18.839445 65.016884,18.179695 
z"/>
<path fill="#E8E5C9" opacity="1.000000" stroke="none" 
	d="
M70.088509,19.028034 
	C69.737793,19.153557 69.574509,19.094891 69.208412,18.873154 
	C69.388580,18.473501 69.771576,18.236919 70.376099,17.942884 
	C70.490402,18.204901 70.383171,18.524372 70.088509,19.028034 
z"/>
<path fill="#526534" opacity="1.000000" stroke="none" 
	d="
M3.965275,19.346073 
	C7.563171,17.955780 11.158956,16.800196 15.217031,15.419353 
	C16.116993,17.130032 16.554667,19.065966 16.993816,21.329845 
	C17.001396,22.094631 17.007498,22.531471 17.057116,23.280060 
	C16.790071,24.726311 16.479509,25.860815 16.168949,26.995317 
	C14.591373,25.601685 13.174921,23.934216 11.393929,22.886299 
	C9.338936,21.677164 6.962372,21.014557 4.343316,20.082420 
	C3.961186,20.050213 3.963163,19.580780 3.965275,19.346073 
z"/>
<path fill="#C09F94" opacity="1.000000" stroke="none" 
	d="
M55.662849,2.058320 
	C56.025318,2.013885 56.044930,2.452523 56.074165,2.670107 
	C55.788582,3.111759 55.473759,3.335825 54.776741,3.837355 
	C54.062378,4.165942 53.730213,4.217067 53.398045,4.268191 
	C53.283279,4.041095 53.168518,3.813999 52.775967,3.322009 
	C53.432247,2.738995 54.366318,2.420875 55.662849,2.058320 
z"/>
<path fill="#425831" opacity="1.000000" stroke="none" 
	d="
M69.679459,54.573380 
	C68.524734,54.460281 67.281578,54.136059 66.094498,53.437881 
	C67.079330,53.163208 68.008095,53.262493 69.281929,53.424984 
	C69.430504,53.771969 69.418510,54.063324 69.679459,54.573380 
z"/>
<path fill="#516534" opacity="1.000000" stroke="none" 
	d="
M62.503590,51.916168 
	C62.401833,53.710556 62.325871,56.505096 61.357533,56.859180 
	C55.338940,59.059948 56.567909,64.746544 54.893120,69.426064 
	C54.521553,69.761314 54.191460,69.699242 53.608685,69.633331 
	C52.891735,67.995651 52.427471,66.361809 51.889336,64.358231 
	C50.282829,61.904617 48.750187,59.820732 47.215248,57.166500 
	C47.739590,56.069344 48.266239,55.542538 49.136711,55.135395 
	C51.195930,56.059116 52.911327,56.863178 55.252728,57.960667 
	C56.552086,55.901348 57.768929,53.972809 59.010532,52.039310 
	C59.035297,52.034351 59.027523,51.984695 59.027523,51.984695 
	C60.057304,51.919186 61.087086,51.853680 62.503590,51.916168 
z"/>
<path fill="#516A31" opacity="1.000000" stroke="none" 
	d="
M64.678238,18.020630 
	C65.016319,18.839445 65.015762,19.499197 65.018494,20.488808 
	C58.792686,21.251659 56.102482,25.125406 55.505035,32.376011 
	C53.347309,29.630333 52.013786,27.933443 50.330078,25.722767 
	C48.332962,24.105583 46.686024,23.002180 45.039085,21.898777 
	C44.380482,20.960531 43.721874,20.022284 43.063267,19.084034 
	C44.216148,18.372429 45.383751,17.040087 46.519123,17.067015 
	C49.768253,17.144075 50.807388,15.065304 52.264435,12.343578 
	C53.156708,12.000904 53.565197,11.996752 54.212658,12.086261 
	C55.266945,12.123000 56.082264,12.066080 56.897579,12.009159 
	C57.494839,16.354933 61.247204,16.688623 64.678238,18.020630 
z"/>
<path fill="#AF232F" opacity="1.000000" stroke="none" 
	d="
M35.191807,45.983616 
	C34.106705,39.803558 28.758495,39.049755 23.845148,36.425716 
	C25.456837,35.862129 27.068525,35.298542 29.227636,34.361904 
	C35.145428,33.318546 33.502048,27.652384 36.429928,25.051662 
	C37.087524,25.073116 37.463345,25.084501 37.921684,25.404095 
	C38.419689,26.423937 38.835175,27.135572 39.250656,27.847206 
	C39.253925,28.468542 39.257191,29.089876 39.618355,30.239233 
	C40.397747,35.304897 44.419785,34.098743 46.972614,35.531464 
	C45.728374,36.820930 44.527565,37.763184 43.313179,38.687607 
	C42.232960,39.509895 41.137707,40.312428 40.046341,41.085846 
	C40.043587,41.048012 40.119442,41.046570 39.777790,41.141487 
	C38.021358,42.818806 36.606583,44.401211 35.191807,45.983616 
z"/>
<path fill="#FBF4E6" opacity="1.000000" stroke="none" 
	d="
M47.010139,35.176498 
	C44.419785,34.098743 40.397747,35.304897 39.907875,30.380920 
	C41.773212,30.364248 43.706921,30.733910 45.640633,31.103573 
	C45.518715,29.117212 45.405693,27.130243 45.270584,25.144781 
	C45.214790,24.324867 45.111591,23.508177 45.034519,22.294399 
	C46.686024,23.002180 48.332962,24.105583 50.006126,25.568031 
	C49.900154,29.258066 50.002449,32.482136 53.668999,34.506603 
	C53.393349,35.319920 53.184917,35.677063 52.618584,36.004505 
	C51.869877,36.330994 51.479076,36.687183 51.088280,37.043377 
	C51.723412,37.298679 52.358540,37.553986 52.962471,38.109940 
	C52.885590,38.606850 52.839909,38.803116 52.794224,38.999382 
	C51.732018,39.242798 50.669807,39.486214 49.300964,39.520351 
	C48.984898,38.848713 48.975471,38.386345 48.991158,37.598137 
	C48.347565,36.573696 47.678852,35.875095 47.010139,35.176498 
z"/>
<path fill="#FBF4E6" opacity="1.000000" stroke="none" 
	d="
M39.423382,27.452042 
	C38.835175,27.135572 38.419689,26.423937 37.985210,25.054455 
	C38.021988,23.930017 38.077763,23.463430 38.133537,22.996841 
	C38.621059,24.350187 39.108582,25.703531 39.423382,27.452042 
z"/>
<path fill="#78282D" opacity="1.000000" stroke="none" 
	d="
M38.018471,22.730103 
	C38.077763,23.463430 38.021988,23.930017 37.902687,24.746246 
	C37.463345,25.084501 37.087524,25.073116 36.356647,24.669622 
	C36.102020,23.253555 36.202454,22.229595 36.302887,21.205637 
	C36.513504,21.477919 36.790848,21.607880 37.340233,21.476669 
	C37.664833,21.726334 37.784122,22.094847 38.018471,22.730103 
z"/>
<path fill="#586C43" opacity="1.000000" stroke="none" 
	d="
M53.309116,4.668765 
	C53.730213,4.217067 54.062378,4.165942 54.647560,4.100267 
	C54.458015,5.543275 54.015461,7.000833 53.262318,7.986032 
	C53.041214,6.698895 53.130703,5.884117 53.309116,4.668765 
z"/>
<path fill="#4E5E33" opacity="1.000000" stroke="none" 
	d="
M53.973686,11.992600 
	C53.565197,11.996752 53.156708,12.000904 52.441841,12.007061 
	C52.270897,11.040321 52.406330,10.071576 52.769310,8.800631 
	C53.639900,8.265587 54.282936,8.032743 54.928383,8.731280 
	C54.611759,10.439309 54.292721,11.215955 53.973686,11.992600 
z"/>
<path fill="#546835" opacity="1.000000" stroke="none" 
	d="
M16.106417,27.211956 
	C16.479509,25.860815 16.790071,24.726311 17.272072,23.168224 
	C17.293119,22.163727 17.142729,21.582813 16.992338,21.001902 
	C16.554667,19.065966 16.116993,17.130032 15.421371,15.099472 
	C16.033066,12.248104 16.902712,9.491360 17.799438,6.361099 
	C18.007265,5.384901 18.188009,4.782220 18.650295,4.028078 
	C18.931835,3.876616 19.389061,4.019495 19.625519,4.057204 
	C20.650280,12.864641 24.975952,18.240755 34.448879,19.365288 
	C30.549953,21.520081 26.340830,23.285976 21.797001,25.135410 
	C20.287674,27.154314 19.113050,29.089678 17.938425,31.025043 
	C17.506704,30.081156 17.074986,29.137266 16.346554,28.036449 
	C16.049839,27.879522 16.043884,27.428595 16.106417,27.211956 
z"/>
<path fill="#FAF6EA" opacity="1.000000" stroke="none" 
	d="
M22.131706,25.051870 
	C26.340830,23.285976 30.549953,21.520081 34.837971,19.396500 
	C34.916862,19.038815 35.365444,19.017916 35.589676,19.009239 
	C35.894863,19.497564 35.975819,19.994568 36.179832,20.848604 
	C36.202454,22.229595 36.102020,23.253555 36.074867,24.659554 
	C33.502048,27.652384 35.145428,33.318546 29.399925,34.026066 
	C28.547836,32.241486 28.070883,30.419689 27.632328,28.744562 
	C25.169781,30.683840 23.067217,32.339626 20.498667,33.612953 
	C20.732355,30.504288 21.432030,27.778078 22.131706,25.051870 
z"/>
<path fill="#506B35" opacity="1.000000" stroke="none" 
	d="
M17.151995,62.559872 
	C15.176903,60.583401 13.201812,58.606930 11.344604,56.220894 
	C11.953218,54.491138 12.443946,53.170952 12.934674,51.850761 
	C13.971812,50.227520 14.794862,48.398186 16.104729,47.037483 
	C17.486738,45.601852 16.496939,40.032085 21.489304,43.932549 
	C21.926600,47.717960 22.794317,50.756039 27.063622,51.643707 
	C28.214329,51.882961 29.175957,53.031593 30.543552,53.905327 
	C30.355724,59.054428 25.363827,56.189362 22.683430,58.774498 
	C20.459179,60.297348 18.805588,61.428612 17.151995,62.559872 
z"/>
<path fill="#FBF4E9" opacity="1.000000" stroke="none" 
	d="
M48.966042,37.923981 
	C48.975471,38.386345 48.984898,38.848713 49.000534,39.657959 
	C49.676373,41.462448 50.346004,42.920048 51.011215,44.973824 
	C51.006790,45.569996 50.868004,46.011471 50.699425,46.178226 
	C50.325279,46.589699 50.166821,46.861847 50.041855,47.503769 
	C49.655392,48.880974 49.282547,49.915844 48.523453,51.007286 
	C44.859829,52.109428 41.582458,53.154999 38.183273,53.742542 
	C37.708149,52.779709 37.354839,52.274906 37.001526,51.770103 
	C37.001526,51.770103 37.000008,51.473358 37.341496,51.126545 
	C38.495136,47.535343 39.307289,44.290958 40.119442,41.046570 
	C40.119442,41.046570 40.043587,41.048012 40.430580,41.033249 
	C43.533730,39.986984 46.249886,38.955482 48.966042,37.923981 
z"/>
<path fill="#526534" opacity="1.000000" stroke="none" 
	d="
M21.797003,25.135410 
	C21.432030,27.778078 20.732355,30.504288 20.105463,33.614456 
	C19.458597,34.102772 18.738947,34.207130 17.970402,33.560684 
	C17.503586,32.484806 17.085669,32.159733 16.667751,31.834658 
	C16.803576,32.170998 16.939400,32.507336 17.075226,32.843674 
	C17.382849,32.475662 17.690470,32.107651 17.968258,31.382343 
	C19.113050,29.089678 20.287674,27.154314 21.797003,25.135410 
z"/>
<path fill="#952633" opacity="1.000000" stroke="none" 
	d="
M39.777790,41.141487 
	C39.307289,44.290958 38.495136,47.535343 37.341335,50.978172 
	C36.311726,49.644211 35.623764,48.111809 35.063805,46.281509 
	C36.606583,44.401211 38.021358,42.818806 39.777790,41.141487 
z"/>
<path fill="#B38E83" opacity="1.000000" stroke="none" 
	d="
M36.730774,51.898014 
	C37.354839,52.274906 37.708149,52.779709 38.249626,53.822182 
	C38.437794,54.359848 38.144337,54.551250 38.144337,54.551250 
	C37.984531,54.740761 37.824730,54.930267 37.372173,55.349869 
	C36.916122,55.803455 36.686245,55.934303 36.253372,56.003654 
	C35.707504,55.247646 35.298042,54.460491 34.968380,53.345161 
	C35.518795,52.686630 35.989410,52.356277 36.730774,51.898014 
z"/>
<path fill="#B4958C" opacity="1.000000" stroke="none" 
	d="
M21.347300,38.003853 
	C20.248407,37.885544 19.518091,37.600594 18.409277,36.999779 
	C17.997959,36.505745 17.965141,36.327576 17.932322,36.149403 
	C19.193506,36.712006 20.454691,37.274609 21.347300,38.003853 
z"/>
<path fill="#92645C" opacity="1.000000" stroke="none" 
	d="
M17.650492,36.157181 
	C17.965141,36.327576 17.997959,36.505745 18.115562,36.943298 
	C17.682682,37.463047 17.165016,37.723412 16.346354,37.946850 
	C16.486460,37.328266 16.927561,36.746609 17.650492,36.157181 
z"/>
<path fill="#F9F5E8" opacity="1.000000" stroke="none" 
	d="
M16.657932,32.252728 
	C17.085669,32.159733 17.503586,32.484806 17.881981,33.279648 
	C17.444344,33.389877 17.046227,33.030334 16.657932,32.252728 
z"/>
<path fill="#516A40" opacity="1.000000" stroke="none" 
	d="
M12.539484,51.904228 
	C12.443946,53.170952 11.953218,54.491138 11.103838,55.893925 
	C8.783752,55.644703 6.822319,55.312885 4.471795,54.927513 
	C4.057552,54.700275 4.032397,54.526592 3.926888,54.102001 
	C6.612454,53.219963 9.378374,52.588829 12.539484,51.904228 
z"/>
<path fill="#4C5E32" opacity="1.000000" stroke="none" 
	d="
M17.163700,62.948868 
	C18.805588,61.428612 20.459179,60.297348 22.467316,59.092484 
	C21.600624,61.136944 20.379387,63.255013 19.111546,65.714569 
	C18.435097,65.149986 17.805252,64.243927 17.163700,62.948868 
z"/>
<path fill="#496437" opacity="1.000000" stroke="none" 
	d="
M38.476707,54.681419 
	C38.144337,54.551250 38.437794,54.359848 38.371437,54.280209 
	C41.582458,53.154999 44.859829,52.109428 48.740829,51.210091 
	C49.560848,51.899818 49.777245,52.443321 49.766342,53.184677 
	C49.290325,53.926937 49.041607,54.471333 48.792889,55.015732 
	C48.266239,55.542538 47.739590,56.069344 47.080078,56.845020 
	C46.241428,56.960186 45.535645,56.826485 44.471226,56.672478 
	C42.344753,56.038647 40.576916,55.425121 38.476707,54.681419 
M46.197506,53.523975 
	C46.197506,53.523975 45.874592,53.424953 45.874592,53.424953 
	C45.874592,53.424953 46.079853,53.653610 46.197506,53.523975 
z"/>
<path fill="#C8B4A3" opacity="1.000000" stroke="none" 
	d="
M52.976486,36.034206 
	C53.184917,35.677063 53.393349,35.319920 53.798759,34.719795 
	C54.294632,34.836155 54.593521,35.195492 54.986885,35.895149 
	C55.407742,36.573589 55.734127,36.911709 56.127056,37.477882 
	C55.958981,37.856728 55.724365,38.007515 55.141609,38.415977 
	C54.793465,38.673649 54.783646,38.717773 54.783646,38.717773 
	C54.159184,39.030693 53.534718,39.343613 52.852242,39.327957 
	C52.839909,38.803116 52.885590,38.606850 52.946320,37.814354 
	C52.966408,36.823479 52.971447,36.428844 52.976486,36.034206 
z"/>
<path fill="#59723C" opacity="1.000000" stroke="none" 
	d="
M49.993645,52.986824 
	C49.777245,52.443321 49.560848,51.899818 49.127079,51.153515 
	C49.282547,49.915844 49.655392,48.880974 50.292294,47.401062 
	C50.660236,46.641171 50.764122,46.326321 50.868004,46.011471 
	C50.868004,46.011471 51.006790,45.569996 51.023029,45.339188 
	C52.083912,44.124485 53.128559,43.140594 54.561287,41.791191 
	C56.074280,45.022255 57.529305,48.129520 59.005928,51.610741 
	C59.027523,51.984695 59.035297,52.034351 58.639534,52.015018 
	C56.731213,51.088093 55.218651,50.180500 54.194431,49.565929 
	C52.868168,50.645969 51.430904,51.816395 49.993645,52.986824 
z"/>
<path fill="#FBF4E6" opacity="1.000000" stroke="none" 
	d="
M54.794052,38.712639 
	C54.783646,38.717773 54.793465,38.673649 54.811134,38.672485 
	C54.828804,38.671326 54.804455,38.707504 54.794052,38.712639 
z"/>
<path fill="#586C43" opacity="1.000000" stroke="none" 
	d="
M54.212658,12.086261 
	C54.292721,11.215955 54.611759,10.439309 55.380116,9.215288 
	C56.200958,9.673862 56.572483,10.579811 56.920792,11.747459 
	C56.082264,12.066080 55.266945,12.123000 54.212658,12.086261 
z"/>
<path fill="#6B7B39" opacity="1.000000" stroke="none" 
	d="
M16.993816,21.329845 
	C17.142729,21.582813 17.293119,22.163727 17.228554,22.856476 
	C17.007498,22.531471 17.001396,22.094631 16.993816,21.329845 
z"/>
<path fill="#7C9249" opacity="1.000000" stroke="none" 
	d="
M49.766342,53.184681 
	C51.430904,51.816395 52.868168,50.645969 54.194431,49.565929 
	C55.218651,50.180500 56.731213,51.088093 58.614769,52.019978 
	C57.768929,53.972809 56.552086,55.901348 55.252728,57.960667 
	C52.911327,56.863178 51.195930,56.059116 49.136711,55.135395 
	C49.041607,54.471333 49.290325,53.926937 49.766342,53.184681 
z"/>
<path fill="#952633" opacity="1.000000" stroke="none" 
	d="
M48.991158,37.598137 
	C46.249886,38.955482 43.533730,39.986984 40.433334,41.071083 
	C41.137707,40.312428 42.232960,39.509895 43.313179,38.687607 
	C44.527565,37.763184 45.728374,36.820930 46.972614,35.531464 
	C47.678852,35.875095 48.347565,36.573696 48.991158,37.598137 
z"/>
<path fill="#A27B6C" opacity="1.000000" stroke="none" 
	d="
M52.618584,36.004505 
	C52.971447,36.428844 52.966408,36.823479 52.977520,37.513702 
	C52.358540,37.553986 51.723412,37.298679 51.088280,37.043377 
	C51.479076,36.687183 51.869877,36.330994 52.618584,36.004505 
z"/>
<path fill="#F9F7EA" opacity="1.000000" stroke="none" 
	d="
M50.699429,46.178226 
	C50.764122,46.326321 50.660236,46.641171 50.305916,47.058723 
	C50.166821,46.861847 50.325279,46.589699 50.699429,46.178226 
z"/>
<path fill="#5A743D" opacity="1.000000" stroke="none" 
	d="
M46.138680,53.588791 
	C46.079853,53.653610 45.874592,53.424953 45.874592,53.424953 
	C45.874592,53.424953 46.197506,53.523975 46.138680,53.588791 
z"/>
</svg>